HIERARCHY
ROOT Hips
{
	OFFSET 0.000000 0.000000 0.000000
	CHANNELS 6 Xposition Yposition Zposition Zrotation Yrotation Xrotation 
	JOINT LHipJoint
	{
		OFFSET 0.000000 0.000000 0.000000
		CHANNELS 3 Zrotation Yrotation Xrotation
		JOINT LeftUpLeg
		{
			OFFSET 1.363060 -1.794630 0.839290
			CHANNELS 3 Zrotation Yrotation Xrotation
			JOINT LeftLeg
			{
				OFFSET 2.448110 -6.726130 0.000000
				CHANNELS 3 Zrotation Yrotation Xrotation
				JOINT LeftFoot
				{
					OFFSET 2.562200 -7.039590 0.000000
					CHANNELS 3 Zrotation Yrotation Xrotation
					JOINT LeftToeBase
					{
						OFFSET 0.157640 -0.433110 2.322550
						CHANNELS 3 Zrotation Yrotation Xrotation
						End Site
						{
							OFFSET 0.000000 0.000000 0.000000
						}
					}
				}
			}
		}
	}
	JOINT RHipJoint
	{
		OFFSET 0.000000 0.000000 0.000000
		CHANNELS 3 Zrotation Yrotation Xrotation
		JOINT RightUpLeg
		{
			OFFSET -1.305520 -1.794630 0.839290
			CHANNELS 3 Zrotation Yrotation Xrotation
			JOINT RightLeg
			{
				OFFSET -2.542530 -6.985550 0.000000
				CHANNELS 3 Zrotation Yrotation Xrotation
				JOINT RightFoot
				{
					OFFSET -2.568260 -7.056230 0.000000
					CHANNELS 3 Zrotation Yrotation Xrotation
					JOINT RightToeBase
					{
						OFFSET -0.164730 -0.452590 2.363150
						CHANNELS 3 Zrotation Yrotation Xrotation
						End Site
						{
							OFFSET 0.000000 0.000000 0.000000
						}
					}
				}
			}
		}
	}
}
MOTION
Frames: 28
Frame Time: 0.008333
3.557162 17.236463 0.908882 -8.378129 -86.578914 19.696398 -11.539133 1.714247 1.634332 -3.515090 13.392715 -17.891286 -2.446414 -0.878909 0.161636 0.189714 1.247623 3.276403 0.431500 -0.000000 -38.285900 9.144970 -1.522383 1.616119 4.851052 -6.394223 -10.231538 2.186068 1.702409 -1.391922 -1.727948 -10.144331 -0.764607 -2.083801 0.000000 -38.398300
3.557165 17.238604 0.903834 -6.838074 -85.390089 18.320532 -11.474598 1.734052 1.833417 -3.470492 12.666675 -18.205817 -2.446704 -0.894836 -0.030626 0.134803 0.815971 3.597049 0.371900 0.000000 -38.483600 9.187791 -1.540874 1.594026 5.034864 -6.791869 -10.007221 2.160617 1.780310 -2.004955 -1.849706 -10.899812 -0.622441 -2.254600 0.000000 -38.113600
3.558025 17.241321 0.899327 -5.738378 -84.220806 17.375476 -11.412704 1.752253 2.037205 -3.433621 11.904856 -18.473616 -2.442457 -0.918720 -0.268381 0.087708 0.476140 3.937192 0.326200 -0.000001 -38.643300 9.231702 -1.572064 1.584517 5.193048 -7.175092 -9.773819 2.134364 1.856384 -2.662109 -1.964692 -11.627855 -0.438409 -2.434800 0.000000 -37.834600
3.560476 17.244469 0.895663 -4.895793 -83.090782 16.668323 -11.351822 1.772656 2.244663 -3.401984 11.116206 -18.691730 -2.434005 -0.948047 -0.538600 0.049168 0.230576 4.284299 0.295300 0.000000 -38.761200 9.278637 -1.611600 1.582839 5.324667 -7.552338 -9.534912 2.108263 1.929277 -3.338303 -2.069393 -12.310918 -0.218562 -2.620200 0.000000 -37.569499
3.565210 17.247873 0.893110 -4.219726 -82.019817 16.101123 -11.291509 1.796437 2.451801 -3.375127 10.315068 -18.858678 -2.421928 -0.980542 -0.825953 0.019466 0.077837 4.626271 0.280100 0.000000 -38.834900 9.329248 -1.656069 1.584096 5.427844 -7.929278 -9.296895 2.083288 1.996615 -4.005744 -2.160713 -12.930991 0.028871 -2.805400 0.000000 -37.324300
3.572887 17.251484 0.891837 -3.653726 -81.029976 15.613324 -11.232093 1.822303 2.651039 -3.354836 9.522068 -18.973287 -2.407088 -1.014011 -1.114122 -0.001391 0.013554 4.951997 0.280800 0.000000 -38.862900 9.383406 -1.702185 1.582946 5.499483 -8.307084 -9.067883 2.060209 2.055290 -4.635632 -2.236054 -13.469706 0.293115 -2.983000 -0.000001 -37.103000
3.584185 17.255303 0.891793 -3.161278 -80.146962 15.165064 -11.174762 1.846155 2.830586 -3.345731 8.768416 -19.037963 -2.390915 -1.046083 -1.382919 -0.013909 0.027556 5.250856 0.296400 0.000001 -38.842500 9.440067 -1.746718 1.574349 5.536139 -8.679711 -8.857576 2.039420 2.101625 -5.200853 -2.293446 -13.910506 0.565123 -3.145900 -0.000001 -36.911899
3.599082 17.259186 0.892826 -2.710067 -79.395750 14.740796 -11.120939 1.862573 2.983113 -3.350422 8.064779 -19.063237 -2.373255 -1.076196 -1.622481 -0.016572 0.130418 5.514350 0.330200 0.000001 -38.782300 9.496766 -1.786484 1.557384 5.537099 -9.027961 -8.691126 2.021261 2.133399 -5.675953 -2.333217 -14.242763 0.825607 -3.285200 0.000000 -36.738600
3.617999 17.263463 0.894563 -2.276524 -78.803028 14.310348 -11.072299 1.864605 3.091887 -3.379064 7.466231 -19.051288 -2.357593 -1.102762 -1.808210 -0.011986 0.294678 5.735741 0.376900 0.000000 -38.672901 9.548243 -1.811924 1.518728 5.503252 -9.325377 -8.760940 2.000011 2.112036 -5.623861 -2.306840 -14.442576 0.833005 -3.395000 -0.000000 -36.594700
3.640535 17.267880 0.896451 -1.819713 -78.400608 13.856299 -11.030774 1.846969 3.147547 -3.437952 6.985232 -19.015043 -2.343964 -1.125428 -1.938033 0.001752 0.532764 5.910577 0.439300 -0.000000 -38.527000 9.595772 -1.825952 1.468030 5.425893 -9.558982 -8.915390 1.981046 2.069466 -5.422843 -2.258406 -14.507096 0.793189 -3.465500 0.000000 -36.467900
3.666162 17.272775 0.898048 -1.329439 -78.213602 13.380437 -10.998564 1.805649 3.139053 -3.533456 6.664130 -18.972720 -2.334887 -1.143370 -1.996957 0.022925 0.824111 6.036443 0.512700 0.000000 -38.341600 9.640120 -1.833977 1.417069 5.304876 -9.709714 -9.041684 1.967560 2.028615 -5.350988 -2.221836 -14.443157 0.867335 -3.495500 0.000000 -36.357400
3.693936 17.278099 0.898834 -0.783161 -78.254684 12.870981 -10.975365 1.739931 3.064693 -3.668841 6.522649 -18.936604 -2.331919 -1.157941 -1.984342 0.050643 1.161829 6.115356 0.595400 0.000000 -38.125700 9.681457 -1.838015 1.373957 5.143741 -9.758461 -9.150831 1.959139 1.990676 -5.414721 -2.199053 -14.250016 1.053917 -3.482399 0.000000 -36.260800
3.722893 17.283806 0.898387 -0.166780 -78.521588 12.318708 -10.960444 1.650395 2.925596 -3.844092 6.577957 -18.919974 -2.336812 -1.170597 -1.900290 0.082806 1.529805 6.151466 0.683800 0.000000 -37.888800 9.720134 -1.841719 1.347378 4.950532 -9.692976 -9.254074 1.955119 1.956161 -5.612464 -2.188810 -13.931823 1.345505 -3.426600 0.000000 -36.170700
3.751764 17.289889 0.896515 0.537871 -78.996808 11.712016 -10.953257 1.538466 2.725323 -4.055636 6.835851 -18.934269 -2.350913 -1.182891 -1.751402 0.116844 1.909265 6.152427 0.773300 -0.000000 -37.642400 9.756143 -1.849029 1.343615 4.735598 -9.508726 -9.363603 1.954334 1.924818 -5.933971 -2.187238 -13.500513 1.731924 -3.332700 -0.000001 -36.088800
3.779493 17.296178 0.893176 1.345267 -79.637557 11.035652 -10.953363 1.404294 2.470567 -4.295802 7.288162 -18.986911 -2.375292 -1.197389 -1.547228 0.149122 2.277140 6.127595 0.859000 0.000000 -37.400000 9.778636 -1.848624 1.347954 4.519484 -9.192200 -9.820913 1.951086 1.836804 -5.623992 -2.115560 -12.956792 1.775817 -3.207000 -0.000000 -36.011200
3.804724 17.302580 0.888610 2.279658 -80.402613 10.284685 -10.963704 1.248602 2.162079 -4.552881 7.909442 -19.086669 -2.409018 -1.213469 -1.306870 0.177794 2.614990 6.087489 0.936700 -0.000000 -37.175800 9.789621 -1.849944 1.363217 4.310015 -8.776363 -10.392087 1.951058 1.736299 -5.201827 -2.029992 -12.336926 1.769881 -3.059000 -0.000000 -35.939800
3.826130 17.308899 0.883168 3.395975 -81.238454 9.421170 -10.985794 1.074158 1.807394 -4.823183 8.662714 -19.246792 -2.452516 -1.231597 -1.049157 0.200509 2.902603 6.041250 1.001900 0.000000 -36.977200 9.786679 -1.852995 1.384254 4.113061 -8.282229 -11.044940 1.954165 1.632416 -4.741245 -1.939692 -11.678095 1.747555 -2.900400 -0.000000 -35.878800
3.842811 17.315096 0.877511 4.664925 -82.074212 8.438623 -11.020892 0.892243 1.437879 -5.083924 9.491542 -19.443121 -2.502062 -1.252234 -0.799041 0.215681 3.129268 6.001229 1.053400 0.000000 -36.813900 9.767508 -1.866520 1.416487 3.944722 -7.758592 -11.730039 1.961234 1.529822 -4.276155 -1.848130 -11.013977 1.725434 -2.742500 0.000000 -35.831499
3.853908 17.321041 0.872286 5.997280 -82.820376 7.264827 -11.064508 0.742466 1.161000 -5.316900 10.349398 -19.607362 -2.552895 -1.279864 -0.566446 0.219002 3.278873 5.978104 1.090100 -0.000000 -36.688200 9.737077 -1.935043 1.543826 3.812085 -7.270804 -12.352390 1.969622 1.430581 -3.836419 -1.761729 -10.386175 1.712970 -2.596400 -0.000000 -35.804601
3.859284 17.326471 0.868119 7.176947 -83.536112 5.840593 -11.100836 0.720379 1.166762 -5.490464 11.211695 -19.628385 -2.592189 -1.316139 -0.368826 0.208915 3.346683 5.975192 1.112200 -0.000000 -36.601600 9.708539 -2.109776 1.897418 3.723002 -6.883831 -12.775642 1.985460 1.352309 -3.442745 -1.681019 -9.817450 1.720518 -2.470500 0.000000 -35.807200
3.859557 17.331025 0.865526 8.237388 -84.321348 4.575595 -11.133057 0.764971 1.215320 -5.608886 11.973852 -19.659302 -2.621009 -1.335408 -0.269238 0.203244 3.373872 5.977913 1.120400 0.000000 -36.554899 9.676478 -2.226364 2.177503 3.680532 -6.556016 -13.111361 2.018565 1.321958 -3.123628 -1.599454 -9.318999 1.756650 -2.370601 0.000000 -35.849400
3.855665 17.334566 0.865035 8.794719 -84.843900 3.994958 -11.162880 0.774170 1.176515 -5.675401 12.532564 -19.716046 -2.645701 -1.344615 -0.249216 0.197283 3.354374 5.998810 1.117000 0.000000 -36.543200 9.648182 -2.276912 2.298153 3.686591 -6.338008 -13.367867 2.048027 1.303049 -2.909189 -1.536582 -8.959291 1.808621 -2.302800 0.000000 -35.931800
3.848606 17.337255 0.867082 8.248866 -85.050409 4.540224 -11.168526 0.778135 1.140424 -5.670685 12.857183 -19.724181 -2.661613 -1.351314 -0.301736 0.187687 3.290123 6.044280 1.105200 -0.000000 -36.557999 9.645486 -2.302340 2.342058 3.744022 -6.268674 -13.467687 2.068952 1.291888 -2.814570 -1.499599 -8.769458 1.877016 -2.272700 -0.000000 -36.045400
3.839098 17.339111 0.871761 6.609018 -84.946836 6.192182 -11.146857 0.783799 1.115454 -5.595081 12.925148 -19.675452 -2.665990 -1.353358 -0.424987 0.176917 3.195537 6.112477 1.087700 0.000000 -36.593300 9.671563 -2.297254 2.307875 3.845548 -6.349948 -13.398067 2.080304 1.291178 -2.844649 -1.490171 -8.762394 1.961189 -2.283600 0.000000 -36.176900
3.827802 17.339862 0.878710 4.710121 -84.549268 8.311396 -11.124951 0.745183 0.984284 -5.477176 12.711711 -19.646528 -2.660538 -1.340249 -0.616237 0.171746 3.090546 6.192058 1.065201 0.000000 -36.649800 9.701528 -2.205081 2.077551 3.970261 -6.549844 -13.232669 2.082843 1.303432 -2.994512 -1.506540 -8.933800 2.051560 -2.334100 0.000000 -36.314400
3.815126 17.339176 0.887250 3.336973 -84.417720 10.205122 -11.121403 0.749054 0.771707 -5.334452 12.268668 -19.699789 -2.635239 -1.286730 -0.918607 0.189879 3.021148 6.249646 1.037400 -0.000000 -36.731200 9.704150 -1.937251 1.568480 4.090704 -6.775423 -13.034741 2.108114 1.391688 -3.242335 -1.523101 -9.209751 2.157959 -2.419600 0.000000 -36.445499
3.801125 17.336969 0.896645 2.112706 -83.955456 11.121643 -11.105584 0.924319 1.059391 -5.141089 11.713672 -19.424447 -2.587002 -1.260443 -1.160150 0.184987 2.883587 6.319380 1.004800 0.000000 -36.838200 9.719303 -1.910492 1.508947 4.198110 -7.237914 -12.435325 2.112907 1.471066 -3.555385 -1.571561 -9.637882 2.240742 -2.534800 0.000000 -36.555300
3.786262 17.333381 0.906146 1.326924 -83.089906 11.486397 -11.090140 1.082345 1.401300 -4.943799 10.993947 -19.100486 -2.540019 -1.248049 -1.353662 0.169263 2.708445 6.386202 0.967900 0.000000 -36.968301 9.737890 -1.946033 1.508987 4.290834 -7.816823 -11.715497 2.095372 1.534061 -3.940114 -1.648812 -10.200120 2.296140 -2.672900 -0.000000 -36.629600
